# xmcd CD database file
#
# Track frame offsets:
#	150
#	31224
#	43331
#	61525
#	76089
#	85034
#	101451
#	114665
#	132595
#	152964
#	165475
#	180235
#	195757
#	206154
#	226938
#	241957
#	259773
#	271498
#	287473
#
# Disc length: 4094 seconds
#
# Revision: 8
# Processed by: cddbd v1.5.2PL0 Copyright (c) Steve Scherf et al.
# Submitted via: CDex 1.60beta1
#
DISCID=f10ffc13
DTITLE=Jim Brickman - A Christmas Celebration
DYEAR=2010
DGENRE=Jazz
TTITLE0=People Get Ready
TTITLE1=Joy To The World
TTITLE2=The Gift
TTITLE3=Greensleeves We Three Kings
TTITLE4=Carol of The Bells
TTITLE5=Sending You A Little Christmas
TTITLE6=Rockin Around The Christmas Tree
TTITLE7=O Come O Come Emmanuel
TTITLE8=O Holy Night
TTITLE9=O Come All Ye Faithful
TTITLE10=Jingle Bells
TTITLE11=Silent Night
TTITLE12=I'll Be Home For Christmas
TTITLE13=Peace
TTITLE14=The First Noel Silver Bells
TTITLE15=Hear Me
TTITLE16=Star of Night
TTITLE17=Amazing Graze Jesu Joy
TTITLE18=Without You In My Life
EXTD=YEAR: 2010
EXTT0=
EXTT1=
EXTT2=
EXTT3=
EXTT4=
EXTT5=
EXTT6=
EXTT7=
EXTT8=
EXTT9=
EXTT10=
EXTT11=
EXTT12=
EXTT13=
EXTT14=
EXTT15=
EXTT16=
EXTT17=
EXTT18=
PLAYORDER=
